<?xml version="1.0" encoding="utf-8"?>
<!-- Generator: Adobe Illustrator 20.1.0, SVG Export Plug-In . SVG Version: 6.00 Build 0)  -->
<svg version="1.1" id="Слой_1" xmlns="http://www.w3.org/2000/svg" xmlns:xlink="http://www.w3.org/1999/xlink" x="0px" y="0px"
   viewBox="0 0 62.8 66" style="enable-background:new 0 0 62.8 66;" xml:space="preserve">
<path d="M62.8,27.4c0,5.5-14.1,10-31.4,10S0,32.9,0,27.4v-3.2c0-1.1,0.6-2.2,1.7-3.3c1.6,1,3.7,1.9,6.4,2.8c6.3,2,14.5,3.1,23.3,3.1
  s17-1.1,23.3-3.1c2.7-0.8,4.7-1.8,6.4-2.8c1.1,1,1.7,2.1,1.7,3.3V27.4z M62.8,10c0-5.5-14.1-10-31.4-10S0,4.5,0,10v3.2
  c0,5.5,14.1,10,31.4,10s31.4-4.5,31.4-10V10z M54.7,38c-6.3,2-14.5,3.1-23.3,3.1S14.4,40,8.1,38c-2.7-0.8-4.7-1.8-6.4-2.8
  c-1.1,1-1.7,2.1-1.7,3.3v3.2c0,5.5,14.1,10,31.4,10s31.4-4.5,31.4-10v-3.2c0-1.1-0.6-2.2-1.7-3.3C59.4,36.2,57.4,37.1,54.7,38z
   M62.8,56v-3.2c0-1.1-0.6-2.2-1.7-3.3c-1.6,1-3.7,1.9-6.4,2.8c-6.3,2-14.5,3.1-23.3,3.1s-17-1.1-23.3-3.1c-2.7-0.8-4.7-1.8-6.4-2.8
  c-1.1,1-1.7,2.1-1.7,3.3V56c0,5.5,14.1,10,31.4,10C48.7,65.9,62.8,61.5,62.8,56z"/>
</svg>
